<svg width="5" height="8" viewBox="0 0 5 8" fill="none" xmlns="http://www.w3.org/2000/svg">
<path fill-rule="evenodd" clip-rule="evenodd" d="M0.951339 7.8153L4.78545 4.34759C4.99877 4.15607 4.99877 3.84158 4.78545 3.6484L4.76485 3.63677L0.951339 0.177773C0.736989 -0.0149869 0.388175 -0.0149869 0.17394 0.177773L0.169935 0.184421C0.0677395 0.274157 0.00262451 0.398373 0.00262451 0.537965V7.45553C0.00262451 7.5972 0.0707145 7.72391 0.17589 7.81406L0.17394 7.8153C0.389665 8.00849 0.736989 8.00849 0.951339 7.8153Z" fill="black"/>
<path fill-rule="evenodd" clip-rule="evenodd" d="M0.951339 7.8153L4.78545 4.34759C4.99877 4.15607 4.99877 3.84158 4.78545 3.6484L4.76485 3.63677L0.951339 0.177773C0.736989 -0.0149869 0.388175 -0.0149869 0.17394 0.177773L0.169935 0.184421C0.0677395 0.274157 0.00262451 0.398373 0.00262451 0.537965V7.45553C0.00262451 7.5972 0.0707145 7.72391 0.17589 7.81406L0.17394 7.8153C0.389665 8.00849 0.736989 8.00849 0.951339 7.8153Z" fill="#C7B299"/>
</svg>
